<svg height="480pt" viewBox="-31 0 479 480" width="480pt" xmlns="http://www.w3.org/2000/svg"><path d="m80.5 56h-64c-4.417969 0-8 3.582031-8 8v64c0 4.417969 3.582031 8 8 8h64c4.417969 0 8-3.582031 8-8v-64c0-4.417969-3.582031-8-8-8zm0 0" fill="#ffe477"/><path d="m80.5 200h-64c-4.417969 0-8 3.582031-8 8v64c0 4.417969 3.582031 8 8 8h64c4.417969 0 8-3.582031 8-8v-64c0-4.417969-3.582031-8-8-8zm0 0" fill="#ffe477"/><path d="m80.5 344h-64c-4.417969 0-8 3.582031-8 8v64c0 4.417969 3.582031 8 8 8h64c4.417969 0 8-3.582031 8-8v-64c0-4.417969-3.582031-8-8-8zm0 0" fill="#ffe477"/><path d="m336.5 32c4.683594 9.132812 13.765625 15.1875 24 16v-8c0-17.671875-14.328125-32-32-32s-32 14.328125-32 32v16s32 0 40-24zm0 0" fill="#ffc477"/><path d="m360.5 72v-24c-10.234375-.8125-19.316406-6.867188-24-16-8 24-40 24-40 24v16c0 8.835938 7.164062 16 16 16v16h-8l24 32 23.945312-32h-7.945312v-16c8.835938 0 16-7.164062 16-16zm0 0" fill="#ffdaaa"/><path d="m304.5 104h-8c-26.507812 0-48 21.492188-48 48v120c0 4.417969 3.582031 8 8 8h72v-144zm0 0" fill="#1e81ce"/><path d="m360.5 104h-8.054688l-23.945312 32v144h72c4.417969 0 8-3.582031 8-8v-120c0-26.507812-21.492188-48-48-48zm0 0" fill="#1e81ce"/><path d="m328.5 280h-48v184c0 4.417969 3.582031 8 8 8h80c4.417969 0 8-3.582031 8-8v-184zm0 0" fill="#c49a6c"/><g fill="#3e3d42"><path d="m360.5 96h-8v-1.367188c9.582031-3.402343 15.988281-12.464843 16-22.632812v-32c0-22.089844-17.910156-40-40-40s-40 17.910156-40 40v32c.011719 10.167969 6.417969 19.230469 16 22.632812v1.367188h-8c-30.914062.035156-55.964844 25.085938-56 56v120c0 8.835938 7.164062 16 16 16h16v176c0 8.835938 7.164062 16 16 16h80c8.835938 0 16-7.164062 16-16v-176h16c8.835938 0 16-7.164062 16-16v-120c-.035156-30.914062-25.085938-55.964844-56-56zm-16-16c-4.417969 0-8 3.582031-8 8v16c.019531 1.929688.75 3.789062 2.046875 5.214844l-10.046875 13.441406-10.054688-13.410156c1.308594-1.433594 2.039063-3.304688 2.054688-5.246094v-16c0-4.417969-3.582031-8-8-8s-8-3.582031-8-8v-8.695312c12.746094-1.378907 24.542969-7.394532 33.144531-16.90625 4.164063 4.03125 9.269531 6.949218 14.855469 8.488281v17.113281c0 4.417969-3.582031 8-8 8zm-16-64c12.246094.039062 22.492188 9.3125 23.742188 21.496094-3.515626-2.316406-6.441407-5.421875-8.542969-9.070313-1.445313-2.902343-4.496094-4.640625-7.726563-4.414062-3.230468.230469-6.003906 2.386719-7.023437 5.460937-4.390625 9.835938-13.730469 16.550782-24.449219 17.589844v-7.0625c0-13.253906 10.746094-24 24-24zm-72 136c.027344-22.082031 17.917969-39.972656 40-40h4l20 26.664062v133.335938h-32v-120h-16v120h-16zm112 312h-32v-136h-16v136h-32v-176h80zm32-192h-16v-120h-16v120h-32v-133.34375l19.945312-26.65625h4.054688c22.082031.027344 39.972656 17.917969 40 40zm0 0"/><path d="m96.5 68.6875v-4.6875c0-8.835938-7.164062-16-16-16h-64c-8.835938 0-16 7.164062-16 16v64c0 8.835938 7.164062 16 16 16h64c8.835938 0 16-7.164062 16-16v-36.6875l21.65625-21.65625-11.3125-11.3125zm-16 59.3125h-64v-64h64v20.679688l-16 16-18.34375-18.34375-11.3125 11.3125 24 24c3.125 3.121093 8.1875 3.121093 11.3125 0l10.34375-10.34375zm0 0"/><path d="m96.5 212.6875v-4.6875c0-8.835938-7.164062-16-16-16h-64c-8.835938 0-16 7.164062-16 16v64c0 8.835938 7.164062 16 16 16h64c8.835938 0 16-7.164062 16-16v-36.6875l21.65625-21.65625-11.3125-11.3125zm-16 59.3125h-64v-64h64v20.679688l-16 16-18.34375-18.34375-11.3125 11.3125 24 24c3.125 3.121093 8.1875 3.121093 11.3125 0l10.34375-10.34375zm0 0"/><path d="m106.84375 346.34375-10.34375 10.34375v-4.6875c0-8.835938-7.164062-16-16-16h-64c-8.835938 0-16 7.164062-16 16v64c0 8.835938 7.164062 16 16 16h64c8.835938 0 16-7.164062 16-16v-36.6875l21.65625-21.65625zm-26.34375 69.65625h-64v-64h64v20.679688l-16 16-18.34375-18.34375-11.3125 11.3125 24 24c3.125 3.121093 8.1875 3.121093 11.3125 0l10.34375-10.34375zm0 0"/><path d="m128.5 128h80v16h-80zm0 0"/><path d="m128.5 80h80v16h-80zm0 0"/><path d="m128.5 272h80v16h-80zm0 0"/><path d="m128.5 224h80v16h-80zm0 0"/><path d="m128.5 416h80v16h-80zm0 0"/><path d="m128.5 368h80v16h-80zm0 0"/></g></svg>