<svg height="512pt" viewBox="-16 0 512 512.001" width="512pt" xmlns="http://www.w3.org/2000/svg"><path d="m240.832031 7.574219c-32.601562 0-59.03125 26.425781-59.03125 59.027343v24.429688c3.945313-3.65625 9.558594-5.644531 15.039063-4.910156v-2.941406c0-2.339844 1.996094-4.1875 4.308594-4.011719 22.824218 1.640625 46.050781-5.613281 63.609374-17.085938 1.640626-1.070312 3.8125-.804687 5.144532.628907 15.011718 16.136718 14.921875 15.515624 14.921875 17.621093v5.773438c6.003906-.898438 11.332031.957031 15.03125 4.398437v-23.902344c.003906-32.601562-26.425781-59.027343-59.023438-59.027343zm0 0" fill="#3e4b5a"/><path d="m211.804688 66.601562c0-27.417968 18.691406-50.460937 44.027343-57.101562-4.792969-1.253906-9.816406-1.925781-15-1.925781-32.601562 0-59.03125 26.425781-59.03125 59.027343v24.429688c3.945313-3.65625 9.558594-5.644531 15.039063-4.910156v-2.941406c0-2.339844 1.996094-4.1875 4.308594-4.011719 3.550781.253906 7.109374.269531 10.65625.113281zm0 0" fill="#303f49"/><path d="m234.089844 170.539062c2.378906-.921874 3.949218-3.214843 3.949218-5.765624v-8.355469c-8.128906-.546875-15.328124-3.03125-21.351562-6.878907v18.4375c0 1.648438-.660156 3.179688-1.765625 4.3125zm0 0" fill="#ffbeab"/><path d="m208.691406 184.566406c18.8125 19.992188 45.410156 19.992188 64.226563 0l6.679687-7.097656-9.828125-3.804688c-2.261719-.875-3.75-3.050781-3.75-5.480468v-19.300782c-6.988281 4.820313-15.449219 7.652344-24.558593 7.652344-9.539063 0-17.917969-2.617187-24.773438-7v18.4375c0 2.554688-1.570312 4.847656-3.949219 5.769532l-10.429687 4.042968zm0 0" fill="#ffbeab"/><path d="m238.039062 156.417969c-8.128906-.546875-15.328124-3.03125-21.351562-6.878907v18.4375c0 2.550782-1.570312 4.84375-3.949219 5.765626l-10.429687 4.042968 6.382812 6.785156c8.640625 9.183594 18.929688 14.132813 29.347656 14.878907zm0 0" fill="#f7af9f"/><path d="m283.945312 83.472656v32.332032c0 .351562-.019531.699218-.027343 1.046874 11.445312 1.734376 21.285156-6.535156 21.285156-16.6875 0-10.175781-9.847656-18.402343-21.257813-16.691406zm0 0" fill="#ffbeab"/><path d="m197.714844 115.804688v-32.320313c-9.960938-1.332031-21.253906 6.3125-21.253906 16.675781 0 10.140625 9.820312 18.425782 21.28125 16.691406-.007813-.347656-.027344-.695312-.027344-1.046874zm0 0" fill="#ffbeab"/><path d="m297.648438 86.492188c-3.75-2.535157-8.5625-3.792969-13.703126-3.023438v32.335938c0 .351562-.019531.699218-.027343 1.046874 5.15625.78125 9.976562-.480468 13.726562-3.019531v-27.339843zm0 0" fill="#f7af9f"/><path d="m197.71875 113.835938c-4.578125-3.097657-7.558594-8.097657-7.558594-13.675782 0-5.457031 3.136719-10.160156 7.558594-13.195312v-3.484375c-9.964844-1.328125-21.257812 6.316406-21.257812 16.679687 0 10.140625 9.820312 18.425782 21.28125 16.691406-.007813-.351562-.027344-.699218-.027344-1.046874v-1.96875zm0 0" fill="#f7af9f"/><path d="m269.902344 60.074219c-1.332032-1.433594-3.503906-1.699219-5.144532-.625-17.558593 11.46875-40.785156 18.722656-63.605468 17.082031-2.316406-.175781-4.3125 1.671875-4.3125 4.011719v35.261719c0 22.664062 17.757812 43.367187 44.621094 43.367187 23.910156 0 43.363281-19.457031 43.363281-43.367187v-38.109376c0-2.109374.089843-1.484374-14.921875-17.621093zm0 0" fill="#ffcdbf"/><path d="m226.839844 115.804688v-40.96875c-8.402344 1.664062-17.074219 2.316406-25.691406 1.695312-2.3125-.175781-4.308594 1.671875-4.308594 4.011719v35.261719c0 22.664062 17.757812 43.367187 44.621094 43.367187 5.097656 0 9.992187-.894531 14.542968-2.519531-18.003906-6.167969-29.164062-22.882813-29.164062-40.847656zm0 0" fill="#ffbeab"/><path d="m331.269531 197.480469-52.96875-20.511719-6.824219 7.25c-17.957031 19.078125-43.335937 19.078125-61.289062 0l-6.542969-6.949219-52.140625 20.210938s-24.132812 9.921875-24.132812 37.433593v61.058594c0 3.097656 2.515625 5.613282 5.617187 5.613282h216.847657c3.074218 0 5.566406-2.492188 5.566406-5.566407v-61.105469c0-27.511718-24.132813-37.433593-24.132813-37.433593zm0 0" fill="#feca57"/><path d="m157.375 219.914062c0-14.234374 6.460938-23.753906 12.695312-29.628906l-18.5625 7.195313s-24.132812 9.921875-24.132812 37.433593v61.058594c0 3.101563 2.511719 5.613282 5.613281 5.613282h24.386719zm0 0" fill="#f4b537"/><path d="m108.886719 504.570312h-89.175781c-6.601563 0-12-5.398437-12-12v-98.394531c0-6.601562 5.398437-12 12-12h89.175781c6.601562 0 12.003906 5.398438 12.003906 12v98.394531c0 6.601563-5.402344 12-12.003906 12zm0 0" fill="#54a0ff"/><path d="m284.792969 504.570312h-89.175781c-6.601563 0-12-5.398437-12-12v-98.394531c0-6.601562 5.398437-12 12-12h89.175781c6.601562 0 12 5.398438 12 12v98.394531c0 6.601563-5.398438 12-12 12zm0 0" fill="#1dd1a1"/><path d="m460.699219 504.570312h-89.179688c-6.597656 0-12-5.398437-12-12v-98.394531c0-6.601562 5.402344-12 12-12h89.179688c6.597656 0 12 5.398438 12 12v98.394531c0 6.601563-5.402344 12-12 12zm0 0" fill="#ff6b6b"/><path d="m37.710938 492.570312v-98.394531c0-6.601562 5.402343-12 12.003906-12h-30.003906c-6.601563 0-12 5.398438-12 12v98.394531c0 6.601563 5.398437 12 12 12h30.003906c-6.601563 0-12.003906-5.398437-12.003906-12zm0 0" fill="#338def"/><path d="m213.617188 492.570312v-98.394531c0-6.601562 5.402343-12 12-12h-30c-6.601563 0-12 5.398438-12 12v98.394531c0 6.601563 5.398437 12 12 12h30c-6.597657 0-12-5.398437-12-12zm0 0" fill="#15ba8b"/><path d="m389.523438 492.570312v-98.394531c0-6.601562 5.398437-12 12-12h-30.003907c-6.597656 0-12 5.398438-12 12v98.394531c0 6.601563 5.402344 12 12 12h30.003907c-6.601563 0-12-5.398437-12-12zm0 0" fill="#ee5253"/><path d="m33.363281 422.105469h61.453125c4.144532 0 7.5-3.359375 7.5-7.5 0-4.144531-3.355468-7.5-7.5-7.5h-61.453125c-4.144531 0-7.5 3.355469-7.5 7.5 0 4.140625 3.355469 7.5 7.5 7.5zm0 0"/><path d="m33.363281 450.800781h61.453125c4.144532 0 7.5-3.355469 7.5-7.5s-3.355468-7.5-7.5-7.5h-61.453125c-4.144531 0-7.5 3.355469-7.5 7.5s3.355469 7.5 7.5 7.5zm0 0"/><path d="m33.363281 479.5h61.453125c4.144532 0 7.5-3.359375 7.5-7.5 0-4.144531-3.355468-7.5-7.5-7.5h-61.453125c-4.144531 0-7.5 3.355469-7.5 7.5 0 4.140625 3.355469 7.5 7.5 7.5zm0 0"/><path d="m209.265625 422.105469h61.457031c4.140625 0 7.5-3.359375 7.5-7.5 0-4.144531-3.359375-7.5-7.5-7.5h-61.457031c-4.140625 0-7.5 3.355469-7.5 7.5 0 4.140625 3.359375 7.5 7.5 7.5zm0 0"/><path d="m209.265625 450.800781h61.457031c4.140625 0 7.5-3.355469 7.5-7.5s-3.359375-7.5-7.5-7.5h-61.457031c-4.140625 0-7.5 3.355469-7.5 7.5s3.359375 7.5 7.5 7.5zm0 0"/><path d="m209.265625 479.5h61.457031c4.140625 0 7.5-3.359375 7.5-7.5 0-4.144531-3.359375-7.5-7.5-7.5h-61.457031c-4.140625 0-7.5 3.355469-7.5 7.5 0 4.140625 3.359375 7.5 7.5 7.5zm0 0"/><path d="m385.171875 422.105469h61.453125c4.144531 0 7.5-3.359375 7.5-7.5 0-4.144531-3.355469-7.5-7.5-7.5h-61.453125c-4.140625 0-7.5 3.355469-7.5 7.5 0 4.140625 3.359375 7.5 7.5 7.5zm0 0"/><path d="m385.171875 450.800781h61.453125c4.144531 0 7.5-3.355469 7.5-7.5s-3.355469-7.5-7.5-7.5h-61.453125c-4.140625 0-7.5 3.355469-7.5 7.5s3.359375 7.5 7.5 7.5zm0 0"/><path d="m385.171875 479.5h61.453125c4.144531 0 7.5-3.359375 7.5-7.5 0-4.144531-3.355469-7.5-7.5-7.5h-61.453125c-4.140625 0-7.5 3.355469-7.5 7.5 0 4.140625 3.359375 7.5 7.5 7.5zm0 0"/><path d="m371.308594 374.601562c-10.75 0-19.5 8.75-19.5 19.503907v98.394531c0 10.753906 8.75 19.5 19.5 19.5h89.179687c10.75 0 19.5-8.746094 19.5-19.5v-98.394531c0-10.753907-8.75-19.503907-19.5-19.503907h-37.089843v-24.410156c0-8.757812-7.125-15.882812-15.882813-15.882812h-160.019531v-25.695313h96.554687c10.191407 0 18.484375-8.292969 18.484375-18.484375v-16.238281c0-4.144531-3.355468-7.5-7.5-7.5-4.140625 0-7.5 3.355469-7.5 7.5v16.238281c0 1.917969-1.5625 3.480469-3.484375 3.480469h-22.53125v-49.636719c0-4.140625-3.355469-7.5-7.5-7.5s-7.5 3.359375-7.5 7.5v49.636719h-130.683593v-49.636719c0-4.140625-3.355469-7.5-7.5-7.5-4.140626 0-7.5 3.359375-7.5 7.5v49.636719h-22.53125c-1.921876 0-3.484376-1.5625-3.484376-3.480469v-55.597656c0-14.253906 8.675782-25.761719 19.414063-30.429688l47.25-18.316406 3.074219 3.261719c9.570312 10.171875 22.378906 15.773437 36.0625 15.773437s26.492187-5.601562 36.066406-15.773437l3.355469-3.566406c53.761719 20.824219 67.492187 20.671875 67.492187 53.40625 0 4.144531 3.359375 7.5 7.5 7.5 4.144532 0 7.503906-3.355469 7.503906-7.5v-4.355469c0-32.128906-27.578124-43.835938-28.75-44.320312-.046874-.019532-.097656-.039063-.144531-.054688l-52.894531-20.484375h-.003906l-7.472656-2.894531v-11.789063c9.371093-7.628906 15.972656-18.527343 18.0625-30.9375 12.691406-1.871093 21.070312-12.386719 21.070312-24.089843 0-5.578126-1.914062-10.917969-5.339844-15.1875v-18.328126c0-36.636718-29.808594-66.445312-66.445312-66.445312-36.636719 0-66.445313 29.808594-66.445313 66.445312v18.808594c-3.464843 4.214844-5.335937 9.3125-5.335937 14.710938 0 11.914062 8.660156 22.324218 21.054687 24.113281 2.144531 12.921875 9.117188 24.058594 19.117188 31.660156v11.035157c-34.007813 13.1875-26 10.082031-60.304688 23.378906-.046875.019531-.09375.039062-.140625.058594-1.171875.480468-28.746094 12.1875-28.746094 44.316406v55.597656c0 10.191406 8.289063 18.484375 18.480469 18.484375h94.195313v25.699219h-160.023438c-8.757812 0-15.882812 7.125-15.882812 15.882812v24.410156h-37.089844c-10.75 0-19.5 8.746094-19.5 19.5v98.394532c0 10.753906 8.75 19.503906 19.5 19.503906h89.179688c10.75 0 19.5-8.75 19.5-19.503906v-98.394532c0-10.753906-8.75-19.5-19.5-19.5h-37.089844v-24.410156c0-.484375.398437-.882812.882812-.882812h160.023438v25.292968h-37.089844c-10.753906 0-19.5 8.746094-19.5 19.5v98.394532c0 10.753906 8.746094 19.503906 19.5 19.503906h27.085938c4.144531 0 7.503906-3.359375 7.503906-7.5 0-4.144531-3.359375-7.5-7.503906-7.5h-27.085938c-2.4375 0-4.5-2.0625-4.5-4.503906v-98.394532c0-2.4375 2.0625-4.5 4.5-4.5h89.175781c2.441407 0 4.5 2.0625 4.5 4.5v98.394532c0 2.441406-2.058593 4.503906-4.5 4.503906h-27.085937c-4.144532 0-7.5 3.355469-7.5 7.5 0 4.140625 3.355468 7.5 7.5 7.5h27.085937c10.753907 0 19.5-8.75 19.5-19.503906v-98.394532c0-10.753906-8.746093-19.5-19.5-19.5h-37.085937v-25.292968h160.019531c.488281 0 .882813.394531.882813.882812v24.410156zm-79.253906-266.222656v-16.8125c3.40625 1.621094 5.351562 4.914063 5.351562 8.398438 0 3.550781-2.011719 6.835937-5.351562 8.414062zm-102.878907-41.933594c0-28.367187 23.078125-51.445312 51.445313-51.445312 28.367187 0 51.445312 23.078125 51.445312 51.445312v9.519532c-.023437-.003906-.046875-.007813-.070312-.011719-.179688-1.761719-.613282-3.230469-2.996094-6.121094-2.054688-2.488281-5.484375-6.011719-13.855469-15.011719-.003906 0-.003906 0-.003906 0-3.796875-4.078124-10.003906-4.882812-14.726563-1.796874-17.609374 11.503906-39.070312 17.285156-58.851562 15.863281-4.980469-.382813-9.636719 2.523437-11.527344 7.15625-.289062.050781-.574218.105469-.859375.164062zm-5.335937 33.519532c0-3.453125 2.300781-6.324219 5.347656-7.945313v16.359375c-3.34375-1.578125-5.347656-4.867187-5.347656-8.414062zm20.351562 15.621094v-31.542969c20.09375.65625 42.484375-4.898438 61.945313-16.886719 5.636719 6.046875 9.304687 9.894531 10.917969 11.730469v36.710937c-.035157 19.476563-15.835938 35.789063-35.800782 35.792969h-.003906c-22.03125 0-37.058594-16.96875-37.058594-35.804687zm37.050782 50.804687h.007812c5.542969 0 11.488281-.960937 17.019531-2.9375v4.4375c0 4.8125 2.652344 9.261719 6.757813 11.613281-6.617188 6.652344-15.242188 10.3125-24.410156 10.3125-9.003907 0-17.492188-3.53125-24.066407-9.964844 4.511719-2.316406 7.460938-7.039062 7.460938-12.171874v-4c5.621093 1.84375 11.628906 2.710937 17.230469 2.710937zm-128.0625 227.714844v98.394531c0 2.4375-2.0625 4.5-4.5 4.5h-89.179688c-2.4375 0-4.5-2.0625-4.5-4.5v-98.394531c0-2.441407 2.0625-4.5 4.5-4.5h89.179688c2.4375 0 4.5 2.058593 4.5 4.5zm351.808593 0v98.394531c0 2.4375-2.0625 4.5-4.5 4.5h-89.179687c-2.4375 0-4.5-2.0625-4.5-4.5v-98.394531c0-2.441407 2.0625-4.5 4.5-4.5h89.179687c2.4375 0 4.5 2.058593 4.5 4.5zm0 0"/></svg>