<svg height="512pt" viewBox="0 -21 512.02898 512" width="512pt" xmlns="http://www.w3.org/2000/svg"><path d="m490.65625 31.417969c-.148438-2.878907-1.472656-5.570313-3.648438-7.46875-2.175781-1.875-4.992187-2.921875-7.890624-2.578125l-378.816407 31.570312c-1.515625-.660156-3.136719-.9375-4.992187-.894531-5.867188.339844-10.347656 5.355469-10.027344 11.222656l21.398438 395.988281c.167968 2.941407 1.511718 5.675782 3.753906 7.550782 1.960937 1.644531 4.394531 2.539062 6.910156 2.539062.40625 0 .789062-.019531 1.175781-.0625l384-42.667968c5.628907-.617188 9.789063-5.546876 9.472657-11.199219zm0 0" fill="#b0bec5"/><path d="m467.382812 89.847656c-1.644531-2.324218-4.140624-3.902344-6.957031-4.371094l-40.980469-6.828124c-5.84375-1.042969-11.304687 2.964843-12.265624 8.769531l-35.222657-5.867188c.960938-5.824219-2.964843-11.308593-8.765625-12.265625l-286.765625-47.789062c-5.757812-1.042969-11.242187 2.902344-12.242187 8.664062l-64 362.664063c-.492188 2.796875.148437 5.695312 1.789062 8 1.644532 2.304687 4.140625 3.90625 6.957032 4.375l384 64c.597656.105469 1.171874.148437 1.75.148437 5.074218 0 9.578124-3.648437 10.496093-8.808594l64-362.667968c.511719-2.796875-.152343-5.695313-1.792969-8.023438zm0 0" fill="#cfd8dc"/><path d="m448.011719 53.347656c0 29.457032-23.878907 53.332032-53.332031 53.332032-29.457032 0-53.335938-23.875-53.335938-53.332032 0-29.453125 23.878906-53.332031 53.335938-53.332031 29.453124 0 53.332031 23.878906 53.332031 53.332031zm0 0" fill="#f44336"/><path d="m117.34375 469.347656c-2.515625 0-4.949219-.894531-6.890625-2.515625-2.238281-1.898437-3.605469-4.652343-3.773437-7.574219l-2.519532-46.65625c-.320312-5.886718 4.203125-10.921874 10.089844-11.222656 5.761719-.808594 10.902344 4.160156 11.222656 10.070313l1.898438 35.371093 155.179687-17.238281c5.953125-.53125 11.136719 3.585938 11.777344 9.410157.636719 5.863281-3.5625 11.132812-9.429687 11.796874l-166.402344 18.472657c-.363282.066406-.746094.085937-1.152344.085937zm0 0"/><path d="m400.203125 437.902344c-5.355469 0-9.984375-4.03125-10.601563-9.472656-.640624-5.867188 3.5625-11.136719 9.429688-11.796876l91.09375-10.113281-20.160156-362.964843-35.542969 2.964843c-6.035156.320313-11.027344-3.882812-11.519531-9.726562-.492188-5.867188 3.863281-11.050781 9.75-11.519531l46.484375-3.882813c2.878906-.234375 5.71875.660156 7.894531 2.582031 2.175781 1.875 3.496094 4.585938 3.648438 7.464844l21.332031 384c.320312 5.65625-3.839844 10.5625-9.472657 11.179688l-101.121093 11.222656c-.425781.042968-.832031.0625-1.214844.0625zm0 0"/><path d="m209.78125 65.210938c-5.480469 0-10.152344-4.203126-10.621094-9.773438-.492187-5.886719 3.882813-11.050781 9.746094-11.519531l143.765625-11.988281c5.910156-.382813 11.03125 3.882812 11.519531 9.726562.492188 5.867188-3.859375 11.050781-9.746094 11.519531l-143.765624 11.992188c-.300782.019531-.597657.042969-.898438.042969zm0 0"/><path d="m394.679688 469.347656c-.578126 0-1.175782-.042968-1.773438-.148437l-384-64c-2.816406-.449219-5.3125-2.046875-6.953125-4.351563-1.644531-2.328125-2.28125-5.207031-1.792969-8.023437l64-362.664063c1.003906-5.761718 6.507813-9.730468 12.246094-8.664062l286.761719 47.789062c5.804687.957032 9.75 6.460938 8.769531 12.265625-.980469 5.800781-6.484375 9.835938-12.265625 8.769531l-276.332031-46.058593-60.289063 341.671875 362.964844 60.503906 60.289063-341.675781-30.355469-5.054688c-5.804688-.960937-9.75-6.464843-8.769531-12.269531.960937-5.800781 6.421874-9.8125 12.265624-8.765625l40.980469 6.824219c2.816407.449218 5.3125 2.050781 6.957031 4.351562 1.640626 2.328125 2.28125 5.207032 1.792969 8.023438l-64 362.667968c-.898437 5.160157-5.398437 8.808594-10.496093 8.808594zm0 0"/><path d="m309.34375 149.347656c-2.730469 0-5.460938-1.046875-7.550781-3.113281-4.160157-4.160156-4.160157-10.925781 0-15.082031l53.332031-53.335938c4.160156-4.160156 10.925781-4.160156 15.085938 0 4.15625 4.160156 4.15625 10.921875 0 15.082032l-53.335938 53.335937c-2.070312 2.066406-4.800781 3.113281-7.53125 3.113281zm0 0"/><path d="m394.679688 106.679688c-29.398438 0-53.335938-23.914063-53.335938-53.332032 0-29.417968 23.9375-53.332031 53.335938-53.332031 29.394531 0 53.332031 23.914063 53.332031 53.332031 0 29.417969-23.9375 53.332032-53.332031 53.332032zm0-85.332032c-17.644532 0-32 14.359375-32 32 0 17.644532 14.355468 32 32 32 17.640624 0 32-14.355468 32-32 0-17.640625-14.359376-32-32-32zm0 0"/></svg>